<svg width="512" height="512" xmlns="http://www.w3.org/2000/svg" role="img"
     class="svg-inline--fa fa-table-tennis fa-w-16" data-icon="table-tennis" data-prefix="fas" focusable="false"
     aria-hidden="true">

    <g>
        <title>Layer 1</title>
        <path id="svg_1"
              d="m496.2,295.5c31.5,-77.8 15.8,-170.3 -47.2,-233.4c-83.9,-84.1 -220,-84.1 -303.9,0l-56,56.1l211.5,211.5c46.1,-62.1 131.5,-77.4 195.6,-34.2zm-217.9,79.7l-220.4,-220.3c-27.3,45.3 -21.7,105 17.3,144.1l34.5,34.6l-103,89.4c-8.6,7.5 -9.1,20.7 -1,28.8l53.4,53.5c8,8.1 21.2,7.6 28.7,-1l89.3,-103.3l35.7,35.7c19.7,19.7 44.6,30.5 70.3,33.3c-7.1,-17 -11,-35.6 -11,-55.1c-0.1,-13.8 2.5,-27 6.2,-39.7zm137.7,-56.2c-53,0 -96,43 -96,96s43,96 96,96s96,-43 96,-96s-43,-96 -96,-96z"
              fill="#262930"/>
        <g stroke="null">
            <path stroke="null"
                  d="m485.88756,420.87446l-60.19547,0l40.08888,43.82738c1.53222,1.67511 4.05379,1.811 5.62913,0.18859c9.81737,-10.11166 16.57031,-23.74272 18.55154,-39.06552c0.33993,-2.6236 -1.65145,-4.95044 -4.07408,-4.95044zm-4.01574,-17.97136c-2.09031,-33.13054 -26.3065,-59.60501 -56.61098,-61.89026c-2.31355,-0.17472 -4.26181,1.95799 -4.26181,4.49284l0,62.05666l56.76573,0c2.31863,0 4.26688,-2.12994 4.10706,-4.65924zm-73.04938,17.97136l0,-65.80902c0,-2.64856 -2.12837,-4.82564 -4.52563,-4.45401c-30.23092,4.67034 -53.33853,33.54377 -52.26293,68.14696c1.10604,35.53781 29.09443,64.68026 61.61607,64.23375c12.78542,-0.17472 24.59924,-4.67866 34.31261,-12.2111c2.00406,-1.55308 2.13598,-4.7785 0.39828,-6.67825l-39.53839,-43.22833z"
                  fill="white"/>
        </g>
    </g>
</svg>